{"asset":{"version":"2.0","generator":"THREE.GLTFExporter"},"scenes":[{"nodes":[0]}],"scene":0,"nodes":[{"mesh":0}],"bufferViews":[{"buffer":0,"byteOffset":0,"byteLength":792,"target":34962,"byteStride":12},{"buffer":0,"byteOffset":792,"byteLength":132,"target":34963}],"buffers":[{"byteLength":924,"uri":"data:application/octet-stream;base64,"}],"accessors":[{"bufferView":0,"componentType":5126,"count":66,"max":[5.599999904632568,0.20000000298023224,0.4249997138977051],"min":[-2.200000286102295,0.20000000298023224,-3.9750003814697266],"type":"VEC3"},{"bufferView":1,"componentType":5123,"count":66,"max":[65],"min":[0],"type":"SCALAR"}],"materials":[{"pbrMetallicRoughness":{"metallicFactor":0,"roughnessFactor":1}}],"meshes":[{"primitives":[{"mode":4,"attributes":{"POSITION":0},"indices":1,"material":0}]}]}